<svg xmlns="http://www.w3.org/2000/svg" width="24" height="26" viewBox="0 0 24 26">
    <path fill="#CCC" fill-rule="evenodd" d="M11.392 25C5.45 25 1 21.129 1 14.3 1 6.253 6.776 1 13.299 1 19.269 1 23 4.954 23 10.816c0 5.253-3.15 8.018-5.749 8.018-1.63 0-2.846-.746-2.985-2.322h-.055c-1.078 1.16-2.377 2.129-3.759 2.129-1.934 0-3.537-1.438-3.537-4.23 0-3.015 2.155-6.913 5.748-6.913 1.078 0 1.935.497 2.515 1.493h.056l.304-1.244h1.16l-1.105 5.834c-.663 2.737-.055 4.009 1.796 4.009 1.963 0 4.312-2.433 4.312-6.664 0-5.226-3.15-8.682-8.513-8.682-5.555 0-10.861 4.728-10.861 11.973 0 5.972 3.758 9.566 9.176 9.566 1.99 0 3.675-.58 5.085-1.465l.553 1.078C15.399 24.475 13.492 25 11.392 25zm-.691-7.604c.967 0 2.018-.608 3.206-1.99l.94-5.199c-.691-1.106-1.3-1.465-2.211-1.465-2.681 0-4.34 3.041-4.34 5.585 0 2.24 1.078 3.07 2.405 3.07z"/>
</svg>
