<svg xmlns="http://www.w3.org/2000/svg" width="18" height="18" viewBox="0 0 18 18">
    <g fill="#666" fill-rule="evenodd">
        <path d="M14.855 13.374l-1.878-.691a.47.47 0 0 0-.47.085 5.287 5.287 0 0 1-1.751.997.472.472 0 0 0-.313.368l-.319 1.926H7.978l-.314-1.891a.471.471 0 0 0-.321-.371 5.274 5.274 0 0 1-1.771-.964.474.474 0 0 0-.463-.079l-1.913.704-1.058-1.765 1.536-1.201a.473.473 0 0 0 .17-.469 4.876 4.876 0 0 1-.019-1.947.466.466 0 0 0-.172-.459L2.088 6.391l1.057-1.765 1.878.691c.16.058.34.027.47-.085a5.287 5.287 0 0 1 1.751-.997.472.472 0 0 0 .313-.368l.319-1.926h2.146l.314 1.891a.471.471 0 0 0 .321.371 5.274 5.274 0 0 1 1.771.964.478.478 0 0 0 .463.078l1.913-.704 1.058 1.766-1.536 1.201a.473.473 0 0 0-.17.469 4.876 4.876 0 0 1 .019 1.947.466.466 0 0 0 .172.459l1.565 1.226-1.057 1.765zm1.964-2.25l-1.672-1.309a5.9 5.9 0 0 0-.016-1.742l1.638-1.282a.47.47 0 0 0 .113-.612L15.41 3.723a.469.469 0 0 0-.566-.2l-2.031.748a6.221 6.221 0 0 0-1.595-.87l-.333-2.007A.47.47 0 0 0 10.421 1H7.478a.47.47 0 0 0-.465.394l-.34 2.047a6.208 6.208 0 0 0-1.577.9l-1.991-.733a.467.467 0 0 0-.566.2L1.067 6.264a.47.47 0 0 0 .114.612l1.673 1.309a5.74 5.74 0 0 0 .015 1.741l-1.638 1.282a.47.47 0 0 0-.113.613l1.472 2.455a.47.47 0 0 0 .566.201l2.032-.748a6.199 6.199 0 0 0 1.594.87l.333 2.007a.47.47 0 0 0 .464.394h2.943a.471.471 0 0 0 .465-.394l.34-2.047a6.22 6.22 0 0 0 1.577-.9l1.991.733a.47.47 0 0 0 .566-.2l1.472-2.456a.47.47 0 0 0-.114-.612z"/>
        <path d="M9 10.412A1.414 1.414 0 0 1 7.588 9c0-.778.634-1.411 1.412-1.411.778 0 1.412.633 1.412 1.41 0 .78-.634 1.413-1.412 1.413m0-3.765A2.356 2.356 0 0 0 6.647 9 2.356 2.356 0 0 0 9 11.353 2.356 2.356 0 0 0 11.353 9 2.356 2.356 0 0 0 9 6.647"/>
    </g>
</svg>
