<svg xmlns="http://www.w3.org/2000/svg" width="22" height="25" viewBox="0 0 22 25">
    <path fill="#CCC" fill-rule="nonzero" d="M18.122 11.094a9.574 9.574 0 0 0-.098-.852 9.403 9.403 0 0 0-.781-2.573c-.862-1.803-2.265-3.038-4.353-3.486a.5.5 0 0 1-.394-.524c.003-.037.004-.075.004-.112C12.5 2.69 11.826 2 11 2s-1.5.69-1.5 1.547c0 .046.002.093.006.139a.5.5 0 0 1-.383.529c-2.018.48-3.383 1.727-4.228 3.53a9.758 9.758 0 0 0-.783 2.632 9.98 9.98 0 0 0-.098.87c-.01.156-.014.268-.014.319v5.795a.5.5 0 0 1-.488.5 1.547 1.547 0 0 0 .04 3.092H9a.5.5 0 0 1 .5.5C9.5 22.31 10.174 23 11 23s1.5-.69 1.5-1.547a.5.5 0 0 1 .5-.5h5.449a1.548 1.548 0 0 0 .142-3.086.5.5 0 0 1-.455-.498v-5.964c0-.05-.004-.16-.014-.311zM3 11.566c0-.28.031-.748.124-1.343.154-.987.431-1.975.866-2.902.912-1.948 2.388-3.359 4.518-3.978C8.609 2.034 9.684 1 11 1c1.3 0 2.366 1.01 2.488 2.298 2.202.584 3.723 1.985 4.657 3.94.435.91.713 1.878.867 2.847.093.584.124 1.044.124 1.32v5.548a2.548 2.548 0 0 1-.687 5h-4.997C13.224 23.12 12.215 24 11 24c-1.215 0-2.224-.881-2.452-2.047H3.551A2.547 2.547 0 1 1 3 16.92v-5.353z"/>
</svg>
