<svg xmlns="http://www.w3.org/2000/svg" width="26" height="26" viewBox="0 0 26 26">
    <path fill="#666" fill-rule="evenodd" d="M23.498 2.518C14.536 4.86 9.098 14.705 7.242 18.586c1.744-.9 4.688-2.569 7.613-4.8h-.807a.664.664 0 0 1-.656-.656c0-.356.3-.656.656-.656h2.438a36.386 36.386 0 0 0 2.156-2.006h-2.137a.664.664 0 0 1-.657-.657c0-.356.3-.656.657-.656h3.356c1.706-2.006 3.056-4.237 3.637-6.637m-3.356 22.48c-.619 0-1.144-.15-1.444-.506-.712-.825-.037-2.062.506-2.925.15-.206.188-.337.207-.393-.244-.15-1.688-.62-9.169 1.33a161.43 161.43 0 0 0-8.306 2.438.726.726 0 0 1-.525.019.636.636 0 0 1-.375-.413.64.64 0 0 1 .225-.73L5.33 19.71c.056-.169 1.593-4.106 4.668-8.4 4.088-5.718 9-9.28 14.194-10.293.037 0 .075-.02.131-.02.075 0 .15.02.225.038a.662.662 0 0 1 .244.15.57.57 0 0 1 .169.244c.018.075.037.15.037.225 0 .038 0 .094-.019.131-.712 4.65-4.087 9.244-10.05 13.631-3.918 2.85-7.612 4.632-8.493 5.044L4.017 22.9a138.016 138.016 0 0 1 6.094-1.725c8.118-2.1 9.825-1.575 10.406-.788.262.356.431.956-.206 1.894-.6.918-.6 1.275-.6 1.35.412.262 2.512-.263 4.368-1.088.338-.15.713 0 .863.338.15.337 0 .712-.338.862-.993.45-3 1.256-4.462 1.256"/>
</svg>
