<svg xmlns="http://www.w3.org/2000/svg" width="64" height="102" viewBox="0 0 64 102">
    <g fill="none" fill-rule="evenodd">
        <path fill="#DDD" d="M2.844 27.345c1.37-3.878 3.29-7.24 5.759-10.084 2.467-2.844 5.444-5.062 8.93-6.657 3.485-1.594 7.383-2.392 11.693-2.392 5.56 0 10.203.84 13.924 2.521 3.72 1.68 6.717 3.771 8.99 6.27 2.271 2.5 3.896 5.193 4.876 8.08.979 2.888 1.469 5.58 1.469 8.08 0 4.136-.49 7.541-1.469 10.212-.98 2.672-2.194 4.957-3.643 6.851-1.45 1.897-3.055 3.513-4.817 4.848a112.814 112.814 0 0 0-4.994 4.007 24.657 24.657 0 0 0-4.171 4.59c-1.16 1.644-1.909 3.68-2.246 6.108a5.158 5.158 0 0 0-.046.71c0 2.517-1.855 4.558-4.143 4.558h-7.58c-2.287 0-4.14-2.04-4.14-4.557v-1.072c0-.126.003-.254.012-.38.245-3.62.886-6.659 1.926-9.117 1.057-2.498 2.292-4.631 3.701-6.398 1.41-1.766 2.898-3.297 4.465-4.59a73.047 73.047 0 0 0 4.349-3.878 17.146 17.146 0 0 0 3.231-4.266c.823-1.551 1.194-3.49 1.116-5.817 0-3.964-.88-6.894-2.643-8.79-1.763-1.895-4.213-2.845-7.345-2.845-2.115 0-3.936.453-5.464 1.358a11.298 11.298 0 0 0-3.76 3.619c-.981 1.51-1.704 3.277-2.174 5.3-.196.842-.35 1.709-.464 2.602-.288 2.25-2.032 3.927-4.097 3.927H5.15c-2.505 0-4.467-2.433-4.11-5.16.355-2.695.956-5.24 1.803-7.638"/>
        <path fill="#CCC" d="M22.408 93.86c-2.072-8.7 4.02-15.289 12.101-13.592 3.28.688 6.622 4.273 7.238 7.565 1.477 7.89-3.64 14.366-11.949 12.979-3.593-.6-6.546-3.411-7.39-6.953"/>
        <path fill="#999" d="M42.883 86.031c.616 3.909-.258 8.24-3.766 10.551-3.492 2.3-8.731 1.85-11.636-1.178-2.905-3.029-3.285-8.414-1.243-12.024 2.073-3.67 6.061-4.962 10.068-4.26 1.237.217 1.768-1.676.522-1.895-4.84-.848-9.788.667-12.289 5.162-2.452 4.409-2.002 10.718 1.552 14.406 3.525 3.66 9.767 4.232 14.019 1.486 4.329-2.797 5.425-7.974 4.67-12.77-.196-1.246-2.092-.717-1.897.522M40.037 12.412c1.771-.125 3.75-1.009 4.178-2.939.557-2.506-3.226-6.27 1.288-6.401 1.284-.037 1.31-2.077.019-2.04-2.508.073-4.78 1.206-4.323 4.121.117.74.447 1.354.694 2.042.667 1.862.036 3.045-1.839 3.178-1.275.09-1.306 2.13-.017 2.039M45.479 17.578c1.797-.122 3.804-.98 4.239-2.854.565-2.434-3.273-6.088 1.306-6.216 1.303-.037 1.33-2.017.02-1.98-2.545.07-4.85 1.17-4.386 4.001.118.718.453 1.315.703 1.983.678 1.808.038 2.957-1.864 3.085-1.294.088-1.326 2.068-.018 1.98"/>
        <path fill="#999" d="M54.954 15.51c6.382 7.36 7.815 18.294 3.784 27.228-1.862 4.127-4.765 7.224-8.268 9.98-3.023 2.378-6.125 4.79-8.294 8.044-1.56 2.338-1.869 4.618-2.404 7.298-.837 4.19-4.047 3.531-7.173 3.531-2.774 0-6.13.302-6.552-3.531-.392-3.552.789-7.871 2.244-11.06 1.744-3.824 4.343-6.953 7.471-9.695 2.823-2.473 5.912-4.876 7.659-8.313 2.533-4.982 1.753-13.403-2.932-16.883-4.537-3.371-11.425-2.434-15.246 1.585-2.116 2.225-3.292 5.237-3.88 8.225-.453 2.298-.326 4.281-3.44 4.916-.69.141-1.53 0-2.236 0-2.052 0-4.466.36-6.496 0-5.937-1.052-1.834-10.85-.256-14.276C13.45 12.766 22.408 7.231 32.968 7.051c1.273-.021 1.277-2.033 0-2.011-8.622.147-16.663 3.52-22.084 10.495-2.61 3.357-4.49 7.27-5.65 11.377-.84 2.98-2.114 6.98-.136 9.762 2.425 3.409 8.951 2.33 12.526 2.173 2.408-.107 4.36-1.304 5.161-3.727.582-1.758.601-3.67 1.216-5.443 1.05-3.021 3.167-5.904 6.243-7 5.648-2.012 11.22.905 12.192 6.905 1.008 6.22-1.352 10.342-5.84 14.37-6.718 6.032-11.542 12.087-12.422 21.482-.245 2.616-.21 5.453 2.09 7.178 1.67 1.252 3.764.99 5.72.99 1.987 0 4.642.425 6.537-.392 2.874-1.238 2.918-3.932 3.41-6.603 1.117-6.063 6.44-9.633 10.875-13.187 3.967-3.18 6.92-7.252 8.631-12.094 3.287-9.292 1.294-19.884-5.083-27.238-.844-.974-2.24.454-1.4 1.422"/>
    </g>
</svg>
