<svg xmlns="http://www.w3.org/2000/svg" width="22" height="22" viewBox="0 0 22 22">
    <g fill="#BBB" fill-rule="evenodd">
        <path fill-rule="nonzero" d="M11 21C5.477 21 1 16.523 1 11S5.477 1 11 1s10 4.477 10 10-4.477 10-10 10zm0-1a9 9 0 1 0 0-18 9 9 0 0 0 0 18z"/>
        <path d="M10.265 14.303h1.255v1.312h-1.255v-1.312zM8.908 7.056c.513-.553 1.218-.83 2.114-.83.829 0 1.492.237 1.99.71.5.473.749 1.078.749 1.814 0 .446-.092.808-.275 1.085-.183.278-.552.686-1.107 1.224-.404.392-.666.723-.786.994-.12.272-.18.672-.18 1.202H10.29c0-.601.071-1.086.215-1.454.143-.368.456-.79.94-1.265l.505-.499c.151-.143.273-.292.366-.448.168-.273.252-.557.252-.852 0-.412-.123-.77-.37-1.072-.245-.303-.652-.455-1.22-.455-.703 0-1.189.261-1.458.783-.151.29-.238.709-.259 1.255H8.138c0-.908.257-1.64.77-2.192z"/>
    </g>
</svg>
