<svg xmlns="http://www.w3.org/2000/svg" width="30" height="32" viewBox="0 0 30 32">
    <g fill="#DDD" fill-rule="evenodd">
        <path d="M17.459 4.699l.4 1.166 3.675-1.266L20.14 1l-1.147.446.627 1.62a14.106 14.106 0 0 0-11.037.536 14.161 14.161 0 0 0-7.526 9.22L1 13.043l1.191.31.058-.222a12.932 12.932 0 0 1 6.871-8.42 12.89 12.89 0 0 1 9.902-.551l-1.563.539zM27.789 17.765l-.036.213c-.601 3.563-2.803 6.678-6.04 8.548-2.922 1.686-6.453 2.185-9.779 1.396l1.502-.646-.505-1.066L9.4 27.73 11.117 31l1.098-.521-.763-1.454a14.86 14.86 0 0 0 5.882.272 14.49 14.49 0 0 0 5.013-1.773c3.546-2.045 5.957-5.458 6.617-9.36L29 17.95l-1.211-.185z"/>
        <path d="M12.497 11.312c.41-.535 1.07-.806 1.963-.806.76 0 1.383.256 1.852.762.477.517.652 1.129.52 1.82-.144.79-.514 1.337-1.102 1.626-.444.218-.66.59-.66 1.139v1.133h-1.327V15.88c0-.884.298-1.504.887-1.843.464-.266.732-.612.82-1.057a.99.99 0 0 0-.191-.803c-.178-.243-.454-.361-.844-.361-.413 0-.704.107-.888.327-.19.226-.271.507-.25.86l.014.236h-1.327l-.013-.21c-.038-.617.145-1.195.546-1.717zm1.121 7.712h1.594v-1.605h-1.594v1.605zm6.074 4.777h1.084a.65.65 0 0 0 .64-.659V21.277c0-.065-.01-.128-.018-.133-.109-2.17-1.133-4.126-2.821-5.41a5.727 5.727 0 0 0 1.377-3.731c0-1.51-.578-2.883-1.513-3.904-1.01-1.104-2.44-1.798-4.025-1.798-1.893 0-3.567.984-4.566 2.48a5.785 5.785 0 0 0-.973 3.222c0 1.376.488 2.69 1.377 3.732a7.135 7.135 0 0 0-2.812 5.355.66.66 0 0 0-.027.187v1.866a.65.65 0 0 0 .64.658h11.637z"/>
    </g>
</svg>
