<svg xmlns="http://www.w3.org/2000/svg" width="22" height="18" viewBox="0 0 22 18">
    <g fill="#666" fill-rule="evenodd">
        <path d="M20.524 9.387a.475.475 0 0 1-.336-.138l-5.78-5.701a.465.465 0 0 1-.001-.665.48.48 0 0 1 .673-.001l5.78 5.7a.467.467 0 0 1 0 .666.475.475 0 0 1-.336.139"/>
        <path d="M14.744 15.088a.475.475 0 0 1-.337-.14.465.465 0 0 1 .001-.664l5.78-5.701a.48.48 0 0 1 .673 0 .467.467 0 0 1 0 .666l-5.78 5.7a.474.474 0 0 1-.337.139"/>
        <path d="M20.524 9.387H7.239a.474.474 0 0 1-.476-.471c0-.26.213-.47.476-.47h13.285c.263 0 .476.21.476.47s-.213.47-.476.47"/>
        <path d="M10.497 17h-9.02A.473.473 0 0 1 1 16.529V1.471C1 1.21 1.213 1 1.476 1h9.021c.264 0 .477.21.477.471 0 .259-.213.47-.477.47H1.952v14.118h8.545c.264 0 .477.211.477.47a.473.473 0 0 1-.477.471"/>
    </g>
</svg>
