<svg xmlns="http://www.w3.org/2000/svg" width="18" height="10" viewBox="0 0 18 10">
    <path fill="#BBB" fill-rule="evenodd" d="M14.547 1.155l2.104.424a.45.45 0 0 1 .341.527.436.436 0 0 1-.503.357l-2.113-.426a5.921 5.921 0 0 1-1.32 2.427l1.632 1.793a.465.465 0 0 1-.015.637.417.417 0 0 1-.608-.016l-1.648-1.81A5.414 5.414 0 0 1 9.43 6.276V8.55A.44.44 0 0 1 9 9a.44.44 0 0 1-.43-.45V6.276a5.414 5.414 0 0 1-2.987-1.208l-1.648 1.81a.42.42 0 0 1-.608.016.465.465 0 0 1-.015-.637l1.633-1.793a5.917 5.917 0 0 1-1.321-2.427l-2.112.426a.436.436 0 0 1-.504-.357.45.45 0 0 1 .341-.527l2.105-.424c.814-.26.863 0 .863 0C4.647 3.55 6.621 5.398 9 5.398c2.416 0 4.416-1.906 4.698-4.357 0 0 .034-.146.849.114"/>
</svg>
