<svg xmlns="http://www.w3.org/2000/svg" xmlns:xlink="http://www.w3.org/1999/xlink" width="42" height="104" viewBox="0 0 42 104">
    <defs>
        <path id="a" d="M22.784 24.391H.261V.601h22.523v23.79z"/>
        <path id="c" d="M.116.092H30.33v70.13H.116z"/>
    </defs>
    <g fill="none" fill-rule="evenodd">
        <g transform="translate(5.702 78.516)">
            <mask id="b" fill="#fff">
                <use xlink:href="#a"/>
            </mask>
            <path fill="#FFFA50" d="M.721 16.302C-1.613 6.447 5.248-1.018 14.348.904c3.695.78 7.457 4.842 8.15 8.57 1.664 8.938-4.097 16.276-13.455 14.704-4.047-.68-7.372-3.864-8.322-7.876" mask="url(#b)"/>
        </g>
        <path fill="#FF618A" d="M3.974 63.315l-2.95-45.598C.605 11.264 5.813 5.804 12.385 5.804h5.9c6.573 0 11.78 5.46 11.363 11.913l-2.95 45.598c-.382 5.897-5.355 10.49-11.362 10.49-6.008 0-10.982-4.593-11.363-10.49"/>
        <g transform="translate(5.103 1)">
            <mask id="d" fill="#fff">
                <use xlink:href="#c"/>
            </mask>
            <path fill="#333" d="M25.448 54.781c-.137 2.155-.07 4.484-.803 6.538-1.412 3.963-5.257 6.683-9.445 6.683-6.116 0-9.645-4.95-10.08-10.564-.603-7.792-.988-15.607-1.483-23.406-.435-6.879-1.133-13.797-1.31-20.689-.17-6.613 4.45-10.956 10.89-11.033 6.215-.075 13.235.573 14.708 8.122.733 3.755-.19 8.23-.428 11.987l-.728 11.496c-.09 1.425 2.116 1.419 2.206 0l.819-12.928c.268-4.236 1.25-9.198-.395-13.249-2.523-6.207-8.182-7.646-14.2-7.646C9.1.092 3.305 1.652.89 8.003c-1.222 3.215-.683 6.679-.472 10.02l.968 15.278c.533 8.418.753 16.925 1.603 25.318.736 7.265 7.14 12.81 14.53 11.376 7.802-1.514 9.699-8.324 10.136-15.214.09-1.425-2.117-1.419-2.206 0" mask="url(#d)"/>
        </g>
        <path fill="#333" d="M30.37 85.049c.69 4.41-.29 9.295-4.226 11.903-3.92 2.595-9.797 2.086-13.056-1.33-3.26-3.416-3.685-9.491-1.395-13.565 2.327-4.14 6.801-5.597 11.296-4.805 1.389.245 1.985-1.891.587-2.138-5.432-.957-10.982.752-13.788 5.824-2.752 4.973-2.248 12.091 1.74 16.252 3.956 4.128 10.96 4.774 15.729 1.676 4.858-3.155 6.087-8.996 5.24-14.407-.22-1.405-2.346-.809-2.127.59M26.842 41.444c1.142 1.542 3.124 2.869 5.205 2.233 2.702-.827 4.091-6.263 6.824-2.233.777 1.146 2.73.086 1.948-1.068-1.519-2.239-3.906-3.7-6.412-1.734-.634.498-1.027 1.125-1.538 1.714-1.383 1.597-2.87 1.653-4.079.02-.822-1.11-2.778-.054-1.948 1.068M25.263 49.322c1.117 1.616 3.055 3.007 5.09 2.34 2.644-.866 4.002-6.563 6.676-2.34.76 1.201 2.67.09 1.905-1.12-1.486-2.345-3.82-3.877-6.271-1.817-.621.522-1.005 1.18-1.505 1.797-1.353 1.674-2.808 1.732-3.99.02-.804-1.163-2.717-.056-1.905 1.12"/>
    </g>
</svg>
