<svg xmlns="http://www.w3.org/2000/svg" width="22" height="22" viewBox="0 0 22 22">
    <g fill="#666" fill-rule="evenodd">
        <path d="M17 3.423C17 2.085 15.85 1 14.43 1H7.57C6.15 1 5 2.085 5 3.423V4h12v-.577zM18.129 8.351a.74.74 0 0 1-.743-.736.74.74 0 0 1 .743-.735c.41 0 .742.329.742.735a.74.74 0 0 1-.742.736m-7.13 9.116c-2.49 0-4.51-2-4.51-4.467 0-2.467 2.02-4.467 4.51-4.467 2.49 0 4.51 2 4.51 4.467 0 2.467-2.02 4.467-4.51 4.467M18.63 5H3.37C2.063 5 1 6.051 1 7.348v11.304C1 19.948 2.063 21 3.37 21h15.26A2.36 2.36 0 0 0 21 18.652V7.348A2.359 2.359 0 0 0 18.63 5"/>
        <path d="M11.014 10.25a2.764 2.764 0 1 0 0 5.528 2.764 2.764 0 0 0 0-5.528"/>
    </g>
</svg>
