<svg xmlns="http://www.w3.org/2000/svg" width="22" height="22" viewBox="0 0 22 22">
    <path fill="#666" fill-rule="evenodd" d="M14.774 10.935c0 2.044-1.72 3.701-3.841 3.701-2.122 0-3.842-1.657-3.842-3.7 0-2.045 1.72-3.702 3.842-3.702 2.121 0 3.841 1.657 3.841 3.701zm3.712 1.41a7.11 7.11 0 0 0-.027-2.834l2.474-1.936-1.955-3.262-3.027 1.114a7.686 7.686 0 0 0-2.56-1.394L12.887 1H8.978l-.511 3.08c-.943.32-1.801.814-2.533 1.442l-2.98-1.097L1 7.687l2.514 1.968a7.11 7.11 0 0 0 .027 2.834l-2.474 1.936 1.955 3.262 3.027-1.114a7.686 7.686 0 0 0 2.56 1.394L9.113 21h3.909l.511-3.08c.943-.32 1.801-.814 2.533-1.442l2.98 1.097L21 14.313l-2.514-1.968z"/>
</svg>
