<svg xmlns="http://www.w3.org/2000/svg" width="18" height="18" viewBox="0 0 18 18">
    <path fill="#BBB" fill-rule="evenodd" d="M12.02 8.948c0 1.635-1.377 2.961-3.074 2.961-1.697 0-3.073-1.326-3.073-2.96 0-1.636 1.376-2.962 3.073-2.962s3.074 1.326 3.074 2.961zm2.969 1.128a5.688 5.688 0 0 0-.022-2.267l1.98-1.55-1.565-2.609-2.42.892a6.15 6.15 0 0 0-2.05-1.115L10.51 1H7.382l-.409 2.464a6.14 6.14 0 0 0-2.025 1.154L2.564 3.74 1 6.35l2.011 1.574a5.688 5.688 0 0 0 .022 2.267l-1.98 1.55 1.565 2.609 2.42-.892a6.15 6.15 0 0 0 2.05 1.115L7.49 17h3.128l.409-2.464a6.14 6.14 0 0 0 2.025-1.154l2.384.878L17 11.65l-2.011-1.574z"/>
</svg>
