<svg xmlns="http://www.w3.org/2000/svg" width="22" height="22" viewBox="0 0 22 22">
    <g fill="#CCC" fill-rule="evenodd">
        <path d="M8.114 13.886a.579.579 0 0 1 0-.82l5.073-5.073a.579.579 0 1 1 .82.82l-5.073 5.073a.579.579 0 0 1-.82 0"/>
        <path d="M20.371 3.452l-1.823-1.823a2.147 2.147 0 0 0-3.037 0l-4.86 4.86a2.147 2.147 0 0 0 0 3.038l.091.09.82-.82-.09-.09a.989.989 0 0 1 0-1.398l4.86-4.86a.987.987 0 0 1 1.396 0l1.823 1.823a.99.99 0 0 1 0 1.397l-4.86 4.86a.99.99 0 0 1-1.398 0l-.09-.091-.82.82.09.09a2.148 2.148 0 0 0 3.038 0l4.86-4.858a2.15 2.15 0 0 0 0-3.038M1.629 18.549l1.823 1.822a2.147 2.147 0 0 0 3.037 0l4.86-4.86a2.147 2.147 0 0 0 0-3.037l-.091-.092-.82.82.09.091a.987.987 0 0 1 0 1.398l-4.86 4.86a.987.987 0 0 1-1.396 0l-1.823-1.822a.99.99 0 0 1 0-1.397l4.86-4.862a.99.99 0 0 1 1.398 0l.09.092.82-.82-.09-.092a2.148 2.148 0 0 0-3.038 0l-4.86 4.86a2.15 2.15 0 0 0 0 3.038"/>
    </g>
</svg>
