<svg xmlns="http://www.w3.org/2000/svg" width="24" height="24" viewBox="0 0 24 24">
    <g fill="none" fill-rule="evenodd">
        <path fill="#FF104F" d="M21.6 24a2.4 2.4 0 1 1 0-4.8 2.4 2.4 0 0 1 0 4.8"/>
        <path fill="#333" d="M17.317 1.759c0-.971-.77-1.759-1.719-1.759h-2.657v15.141c0 2.584-2.186 4.646-4.77 4.354-1.962-.222-3.551-1.849-3.768-3.856-.285-2.644 1.73-4.881 4.255-4.881V6.28c-4.965 0-8.953 4.276-8.64 9.425.267 4.413 3.776 8.004 8.088 8.277 5.032.32 9.211-3.762 9.211-8.842V7.722c.89-.812 3.276-1.394 4.283-1.394V1.85c-1.586.15-3.02.423-4.283 1.16V1.76z"/>
    </g>
</svg>
