<svg xmlns="http://www.w3.org/2000/svg" width="18" height="18" viewBox="0 0 18 18">
    <g fill="#666" fill-rule="evenodd">
        <path d="M16.059 16.059h-1.412v-7.53a.47.47 0 0 0-.47-.47H3.824a.471.471 0 0 0-.471.47v7.53H1.942V1.942h1.41v3.764c0 .26.212.47.472.47h7.529a.47.47 0 0 0 .47-.47V1.942h1.689l2.547 2.547v11.57zm-11.765 0h9.412v-7.06H4.294v7.06zm0-10.823h6.589V1.942H4.295v3.294zm12.569-1.274l-2.824-2.824A.472.472 0 0 0 13.706 1H1.47A.471.471 0 0 0 1 1.47v15.06c0 .26.21.47.47.47h15.06c.26 0 .47-.21.47-.47V4.294a.468.468 0 0 0-.137-.332z"/>
        <path d="M9 4.294a.47.47 0 0 0 .471-.47v-.942a.47.47 0 0 0-.942 0v.942c0 .26.211.47.471.47M11.824 13.588H6.177a.47.47 0 1 0 0 .941h5.647a.47.47 0 0 0 0-.94M11.824 10.53H6.177a.47.47 0 1 0 0 .94h5.647a.47.47 0 1 0 0-.94"/>
    </g>
</svg>
