<svg xmlns="http://www.w3.org/2000/svg" width="18" height="18" viewBox="0 0 18 18">
    <g fill="#666" fill-rule="evenodd">
        <path d="M13 2.615C13 1.723 12.233 1 11.286 1H6.714C5.767 1 5 1.723 5 2.615V3h8v-.385zM14.703 6.723a.597.597 0 0 1 0-1.195c.328 0 .594.267.594.597 0 .33-.266.598-.594.598M9 14.129c-1.992 0-3.608-1.625-3.608-3.63 0-2.003 1.616-3.628 3.608-3.628s3.608 1.625 3.608 3.629S10.992 14.13 9 14.13M15.104 4H2.896A1.902 1.902 0 0 0 1 5.907v9.186C1 16.145 1.85 17 2.896 17h12.208A1.902 1.902 0 0 0 17 15.093V5.907A1.902 1.902 0 0 0 15.104 4"/>
        <path d="M9 8a2.5 2.5 0 1 0 0 5 2.5 2.5 0 0 0 0-5"/>
    </g>
</svg>
