<svg xmlns="http://www.w3.org/2000/svg" width="18" height="12" viewBox="0 0 18 12">
    <g fill="#BBB" fill-rule="nonzero">
        <path d="M9 11c-2.925 0-5.535-1.608-7.825-4.759L1 6l.175-.241C3.465 2.608 6.075 1 9 1s5.535 1.608 7.825 4.759L17 6l-.175.241C14.535 9.392 11.925 11 9 11zm0-.91c2.438 0 4.687-1.343 6.753-4.09C13.687 3.253 11.438 1.91 9 1.91 6.562 1.91 4.313 3.252 2.247 6 4.313 8.747 6.562 10.09 9 10.09z"/>
        <path d="M9 9a3 3 0 1 1 0-6 3 3 0 0 1 0 6zm0-1a2 2 0 1 0 0-4 2 2 0 0 0 0 4z"/>
    </g>
</svg>
