<svg xmlns="http://www.w3.org/2000/svg" width="20" height="20" viewBox="0 0 20 20">
    <g fill="none" fill-rule="evenodd" stroke="#666" stroke-linecap="round" stroke-linejoin="round">
        <path d="M15.989 11.076a5.68 5.68 0 0 0-.022-2.268l1.98-1.548-1.565-2.61-2.421.892a6.138 6.138 0 0 0-2.048-1.116L11.51 2H8.382l-.408 2.464a6.127 6.127 0 0 0-2.026 1.154L3.564 4.74 2 7.35l2.01 1.574a5.661 5.661 0 0 0 .022 2.267l-1.978 1.55 1.564 2.609 2.42-.892c.596.491 1.289.873 2.049 1.115L8.49 18h3.128l.409-2.464a6.13 6.13 0 0 0 2.025-1.154l2.384.878L18 12.65l-2.011-1.574z"/>
        <path d="M12 10a2 2 0 1 1-4 0 2 2 0 0 1 4 0z"/>
    </g>
</svg>
