<svg xmlns="http://www.w3.org/2000/svg" width="32" height="36" viewBox="0 0 32 36">
    <g fill="#D8D8D8" fill-rule="evenodd">
        <path d="M19.019 5.04l.438 1.272L23.48 4.93 21.955 1l-1.256.487.687 1.77c-3.946-1.449-8.318-1.245-12.084.584a15.472 15.472 0 0 0-8.24 10.068L1 14.151l1.304.338.063-.242A14.13 14.13 0 0 1 9.89 5.052a14.146 14.146 0 0 1 10.84-.602l-1.711.59zM29.702 20l-.039.242a13.891 13.891 0 0 1-6.47 9.688 13.722 13.722 0 0 1-10.478 1.582l1.609-.732-.54-1.208L10 31.294 11.84 35l1.176-.59-.818-1.648c2.06.547 4.226.652 6.302.308a14.98 14.98 0 0 0 5.372-2.01 15.209 15.209 0 0 0 7.089-10.607L31 20.21 29.702 20z"/>
        <path d="M13.722 12.61c.472-.599 1.232-.9 2.26-.9.874 0 1.59.285 2.13.85.55.578.752 1.262.599 2.034-.165.884-.591 1.496-1.267 1.82-.512.243-.761.66-.761 1.272v1.267h-1.526v-1.237c0-.988.343-1.68 1.02-2.06.534-.297.843-.684.945-1.182a1.083 1.083 0 0 0-.221-.897c-.204-.272-.522-.404-.971-.404-.475 0-.81.12-1.022.366-.218.252-.312.566-.288.961l.016.264h-1.527l-.015-.234c-.044-.69.167-1.337.628-1.92zm1.29 8.621h1.835v-1.794h-1.834v1.794zm6.99 5.34h1.249c.406 0 .736-.33.736-.736V23.75c0-.073-.01-.143-.02-.149a7.974 7.974 0 0 0-3.247-6.047 6.295 6.295 0 0 0 1.585-4.172 6.348 6.348 0 0 0-1.741-4.365 6.352 6.352 0 0 0-4.633-2.01 6.372 6.372 0 0 0-5.255 2.774 6.336 6.336 0 0 0-1.12 3.601 6.3 6.3 0 0 0 1.585 4.172c-1.943 1.435-3.121 3.62-3.236 5.987a.719.719 0 0 0-.031.21V25.834c0 .406.33.736.736.736h13.392z"/>
    </g>
</svg>
