<svg xmlns="http://www.w3.org/2000/svg" width="28" height="28" viewBox="0 0 28 28">
    <g fill="#999" fill-rule="evenodd">
        <path fill-rule="nonzero" d="M14 26C7.373 26 2 20.627 2 14S7.373 2 14 2s12 5.373 12 12-5.373 12-12 12zm0-.686c6.249 0 11.314-5.065 11.314-11.314S20.25 2.686 14 2.686 2.686 7.75 2.686 14 7.75 25.314 14 25.314z"/>
        <path d="M13.148 18.323h1.563V20h-1.563v-1.677zm-1.69-9.263C12.098 8.353 12.975 8 14.09 8c1.032 0 1.858.302 2.479.907.62.605.931 1.378.931 2.319 0 .57-.114 1.032-.342 1.387-.228.355-.687.876-1.379 1.564-.502.5-.828.924-.978 1.27-.149.347-.224.86-.224 1.537H13.18c0-.769.09-1.389.267-1.859.178-.47.568-1.01 1.17-1.617l.63-.637c.188-.183.34-.374.455-.573.21-.35.314-.712.314-1.088 0-.527-.153-.984-.46-1.371-.306-.387-.813-.58-1.52-.58-.874 0-1.48.332-1.814 1-.189.37-.296.905-.323 1.604H10.5c0-1.161.32-2.096.958-2.803z"/>
    </g>
</svg>
