<svg xmlns="http://www.w3.org/2000/svg" width="72" height="72" viewBox="0 0 72 72">
    <g fill="none" fill-rule="evenodd">
        <path fill="#FF104F" d="M64.8 72a7.2 7.2 0 1 1 0-14.4 7.2 7.2 0 0 1 0 14.4"/>
        <path fill="#333" d="M51.952 9.032V5.277C51.952 2.363 49.643 0 46.795 0h-7.97v45.421l-.002-.003v.003c0 7.753-6.56 13.94-14.31 13.063-5.885-.664-10.654-5.545-11.304-11.567-.855-7.932 5.189-14.644 12.766-14.644V18.841C11.08 18.84-.885 31.668.052 47.116c.803 13.237 11.33 24.01 24.266 24.831 15.096.96 27.634-11.286 27.634-26.526V23.165c2.668-2.435 9.828-4.182 12.848-4.182V5.55c-4.757.45-9.058 1.27-12.848 3.482"/>
    </g>
</svg>
