<?xml version="1.0" encoding="utf-8"?>
<!-- Generator: Adobe Illustrator 21.1.0, SVG Export Plug-In . SVG Version: 6.00 Build 0)  -->
<svg version="1.1" id="Layer_1" xmlns="http://www.w3.org/2000/svg" xmlns:xlink="http://www.w3.org/1999/xlink" x="0px" y="0px"
	 viewBox="0 0 144 144" style="enable-background:new 0 0 144 144;" xml:space="preserve">
<style type="text/css">
	.st0{fill:#FF2C8C;}
	.st1{fill:#494456;}
</style>
<path class="st0" d="M100.8,108c-4,0-7.2-3.2-7.2-7.2c0-4,3.2-7.2,7.2-7.2c4,0,7.2,3.2,7.2,7.2C108,104.8,104.8,108,100.8,108"/>
<path class="st1" d="M88,45v-3.8c0-2.9-2.3-5.3-5.2-5.3h-8v45.4l0,0v0c0,7.8-6.6,13.9-14.3,13.1c-5.9-0.7-10.7-5.5-11.3-11.6
	C48.4,75,54.4,68.3,62,68.3V54.8c-14.9,0-26.9,12.8-25.9,28.3c0.8,13.2,11.3,24,24.3,24.8c15.1,1,27.6-11.3,27.6-26.5V59.2
	c2.7-2.4,9.8-4.2,12.8-4.2V41.5C96,42,91.7,42.8,88,45"/>
</svg>
