<svg xmlns="http://www.w3.org/2000/svg" width="26" height="26" viewBox="0 0 26 26">
    <g fill="#BBB" fill-rule="evenodd">
        <path d="M12.283 11.693c-1.115-1.115-1.133-2.901-.043-3.991l5.896-5.896A2.747 2.747 0 0 1 20.123 1a2.87 2.87 0 0 1 2.004.848l2.025 2.023c1.114 1.115 1.133 2.901.042 3.991L18.3 13.76a2.76 2.76 0 0 1-1.987.805 2.878 2.878 0 0 1-2.005-.848l1.312-1.313a.965.965 0 0 0 .673.285.927.927 0 0 0 .666-.27l5.896-5.897a.947.947 0 0 0-.015-1.337L20.816 3.16a.963.963 0 0 0-.673-.284.92.92 0 0 0-.666.27L13.58 9.042a.947.947 0 0 0 .015 1.338l-1.313 1.313zM10.38 13.596a.964.964 0 0 0-.67-.285.928.928 0 0 0-.668.271l-5.896 5.896a.948.948 0 0 0 .015 1.338l2.023 2.024a.963.963 0 0 0 .673.283.922.922 0 0 0 .666-.268l5.896-5.897a.947.947 0 0 0-.014-1.338l1.312-1.313c1.115 1.115 1.133 2.902.043 3.992l-5.896 5.895A2.747 2.747 0 0 1 5.877 25a2.87 2.87 0 0 1-2.005-.848l-2.024-2.023c-1.114-1.115-1.133-2.902-.043-3.992l5.896-5.897a2.76 2.76 0 0 1 1.988-.805 2.88 2.88 0 0 1 2.005.848l-1.313 1.313z"/>
        <path d="M15.85 10.15a.958.958 0 0 0-1.353 0l-.653.652-1.354 1.354-.855.855-1.354 1.354-.652.653a.956.956 0 1 0 1.353 1.353l.653-.652 1.354-1.354.855-.855 1.354-1.354.652-.653a.958.958 0 0 0 0-1.353"/>
    </g>
</svg>
