<svg xmlns="http://www.w3.org/2000/svg" width="18" height="18" viewBox="0 0 18 18">
    <g fill="#666" fill-rule="evenodd">
        <path d="M8.985 7.759a1.77 1.77 0 0 1 0-2.503l3.737-3.737A1.763 1.763 0 0 1 13.974 1c.453 0 .906.173 1.251.519l1.257 1.255a1.77 1.77 0 0 1 0 2.504l-3.738 3.736a1.765 1.765 0 0 1-2.503 0l.832-.832a.593.593 0 0 0 .84 0l3.737-3.737a.594.594 0 0 0 0-.839l-1.257-1.255a.591.591 0 0 0-.839 0L9.817 6.088a.594.594 0 0 0 0 .839l-.832.832zM7.297 9.368a.627.627 0 0 0-.891 0L2.435 13.34a.631.631 0 0 0 0 .892l1.334 1.334a.63.63 0 0 0 .891 0l3.971-3.97a.632.632 0 0 0 0-.893l.884-.884a1.88 1.88 0 0 1 0 2.66l-3.97 3.971c-.368.368-.849.551-1.33.551-.482 0-.963-.183-1.33-.55l-1.334-1.335a1.88 1.88 0 0 1 0-2.66l3.97-3.97c.368-.368.85-.552 1.33-.552.482 0 .963.184 1.33.551l-.884.884z"/>
        <path d="M11.063 6.937a.601.601 0 0 0-.85 0l-.412.41-.85.852-.54.538-.85.851-.411.41A.601.601 0 1 0 8 10.85l.41-.41.852-.852.538-.538.852-.851.41-.411a.601.601 0 0 0 0-.851"/>
    </g>
</svg>
